<?xml version="1.0" encoding="UTF-8" standalone="no"?>
<svg>
<metadata>built for 'CodeUS' braille table on Mon Nov 17 18:00:59 CET 2014</metadata>
<defs>
<font horiz-adv-x="500" id="Braille-CodeUS-thermo" vert-adv-y="">
<font-face ascent="660" descent="-250" font-family="Braille" font-stretch="normal" font-weight="normal" units-per-em="1024"/>
<missing-glyph/>
<glyph horiz-adv-x="500" unicode=" "/>
<glyph d="M 80 580 m -80, 0 a 80,80 0 1,1 160,0 a 80,80 0 1,1 -160,0 z " horiz-adv-x="500" unicode="A"/>
<glyph d="M 80 330 m -80, 0 a 80,80 0 1,1 160,0 a 80,80 0 1,1 -160,0 z " horiz-adv-x="500" unicode="1"/>
<glyph d="M 80 580 m -80, 0 a 80,80 0 1,1 160,0 a 80,80 0 1,1 -160,0 z M 80 330 m -80, 0 a 80,80 0 1,1 160,0 a 80,80 0 1,1 -160,0 z " horiz-adv-x="500" unicode="B"/>
<glyph d="M 80 80 m -80, 0 a 80,80 0 1,1 160,0 a 80,80 0 1,1 -160,0 z " horiz-adv-x="500" unicode="'"/>
<glyph d="M 80 580 m -80, 0 a 80,80 0 1,1 160,0 a 80,80 0 1,1 -160,0 z M 80 80 m -80, 0 a 80,80 0 1,1 160,0 a 80,80 0 1,1 -160,0 z " horiz-adv-x="500" unicode="K"/>
<glyph d="M 80 330 m -80, 0 a 80,80 0 1,1 160,0 a 80,80 0 1,1 -160,0 z M 80 80 m -80, 0 a 80,80 0 1,1 160,0 a 80,80 0 1,1 -160,0 z " horiz-adv-x="500" unicode="2"/>
<glyph d="M 80 580 m -80, 0 a 80,80 0 1,1 160,0 a 80,80 0 1,1 -160,0 z M 80 330 m -80, 0 a 80,80 0 1,1 160,0 a 80,80 0 1,1 -160,0 z M 80 80 m -80, 0 a 80,80 0 1,1 160,0 a 80,80 0 1,1 -160,0 z " horiz-adv-x="500" unicode="L"/>
<glyph d="M 330 580 m -80, 0 a 80,80 0 1,1 160,0 a 80,80 0 1,1 -160,0 z " horiz-adv-x="500" unicode="@"/>
<glyph d="M 80 580 m -80, 0 a 80,80 0 1,1 160,0 a 80,80 0 1,1 -160,0 z M 330 580 m -80, 0 a 80,80 0 1,1 160,0 a 80,80 0 1,1 -160,0 z " horiz-adv-x="500" unicode="C"/>
<glyph d="M 80 330 m -80, 0 a 80,80 0 1,1 160,0 a 80,80 0 1,1 -160,0 z M 330 580 m -80, 0 a 80,80 0 1,1 160,0 a 80,80 0 1,1 -160,0 z " horiz-adv-x="500" unicode="I"/>
<glyph d="M 80 580 m -80, 0 a 80,80 0 1,1 160,0 a 80,80 0 1,1 -160,0 z M 80 330 m -80, 0 a 80,80 0 1,1 160,0 a 80,80 0 1,1 -160,0 z M 330 580 m -80, 0 a 80,80 0 1,1 160,0 a 80,80 0 1,1 -160,0 z " horiz-adv-x="500" unicode="F"/>
<glyph d="M 80 80 m -80, 0 a 80,80 0 1,1 160,0 a 80,80 0 1,1 -160,0 z M 330 580 m -80, 0 a 80,80 0 1,1 160,0 a 80,80 0 1,1 -160,0 z " horiz-adv-x="500" unicode="/"/>
<glyph d="M 80 580 m -80, 0 a 80,80 0 1,1 160,0 a 80,80 0 1,1 -160,0 z M 80 80 m -80, 0 a 80,80 0 1,1 160,0 a 80,80 0 1,1 -160,0 z M 330 580 m -80, 0 a 80,80 0 1,1 160,0 a 80,80 0 1,1 -160,0 z " horiz-adv-x="500" unicode="M"/>
<glyph d="M 80 330 m -80, 0 a 80,80 0 1,1 160,0 a 80,80 0 1,1 -160,0 z M 80 80 m -80, 0 a 80,80 0 1,1 160,0 a 80,80 0 1,1 -160,0 z M 330 580 m -80, 0 a 80,80 0 1,1 160,0 a 80,80 0 1,1 -160,0 z " horiz-adv-x="500" unicode="S"/>
<glyph d="M 80 580 m -80, 0 a 80,80 0 1,1 160,0 a 80,80 0 1,1 -160,0 z M 80 330 m -80, 0 a 80,80 0 1,1 160,0 a 80,80 0 1,1 -160,0 z M 80 80 m -80, 0 a 80,80 0 1,1 160,0 a 80,80 0 1,1 -160,0 z M 330 580 m -80, 0 a 80,80 0 1,1 160,0 a 80,80 0 1,1 -160,0 z " horiz-adv-x="500" unicode="P"/>
<glyph d="M 330 330 m -80, 0 a 80,80 0 1,1 160,0 a 80,80 0 1,1 -160,0 z " horiz-adv-x="500" unicode="&quot;"/>
<glyph d="M 80 580 m -80, 0 a 80,80 0 1,1 160,0 a 80,80 0 1,1 -160,0 z M 330 330 m -80, 0 a 80,80 0 1,1 160,0 a 80,80 0 1,1 -160,0 z " horiz-adv-x="500" unicode="E"/>
<glyph d="M 80 330 m -80, 0 a 80,80 0 1,1 160,0 a 80,80 0 1,1 -160,0 z M 330 330 m -80, 0 a 80,80 0 1,1 160,0 a 80,80 0 1,1 -160,0 z " horiz-adv-x="500" unicode="3"/>
<glyph d="M 80 580 m -80, 0 a 80,80 0 1,1 160,0 a 80,80 0 1,1 -160,0 z M 80 330 m -80, 0 a 80,80 0 1,1 160,0 a 80,80 0 1,1 -160,0 z M 330 330 m -80, 0 a 80,80 0 1,1 160,0 a 80,80 0 1,1 -160,0 z " horiz-adv-x="500" unicode="H"/>
<glyph d="M 80 80 m -80, 0 a 80,80 0 1,1 160,0 a 80,80 0 1,1 -160,0 z M 330 330 m -80, 0 a 80,80 0 1,1 160,0 a 80,80 0 1,1 -160,0 z " horiz-adv-x="500" unicode="9"/>
<glyph d="M 80 580 m -80, 0 a 80,80 0 1,1 160,0 a 80,80 0 1,1 -160,0 z M 80 80 m -80, 0 a 80,80 0 1,1 160,0 a 80,80 0 1,1 -160,0 z M 330 330 m -80, 0 a 80,80 0 1,1 160,0 a 80,80 0 1,1 -160,0 z " horiz-adv-x="500" unicode="O"/>
<glyph d="M 80 330 m -80, 0 a 80,80 0 1,1 160,0 a 80,80 0 1,1 -160,0 z M 80 80 m -80, 0 a 80,80 0 1,1 160,0 a 80,80 0 1,1 -160,0 z M 330 330 m -80, 0 a 80,80 0 1,1 160,0 a 80,80 0 1,1 -160,0 z " horiz-adv-x="500" unicode="6"/>
<glyph d="M 80 580 m -80, 0 a 80,80 0 1,1 160,0 a 80,80 0 1,1 -160,0 z M 80 330 m -80, 0 a 80,80 0 1,1 160,0 a 80,80 0 1,1 -160,0 z M 80 80 m -80, 0 a 80,80 0 1,1 160,0 a 80,80 0 1,1 -160,0 z M 330 330 m -80, 0 a 80,80 0 1,1 160,0 a 80,80 0 1,1 -160,0 z " horiz-adv-x="500" unicode="R"/>
<glyph d="M 330 580 m -80, 0 a 80,80 0 1,1 160,0 a 80,80 0 1,1 -160,0 z M 330 330 m -80, 0 a 80,80 0 1,1 160,0 a 80,80 0 1,1 -160,0 z " horiz-adv-x="500" unicode="^"/>
<glyph d="M 80 580 m -80, 0 a 80,80 0 1,1 160,0 a 80,80 0 1,1 -160,0 z M 330 580 m -80, 0 a 80,80 0 1,1 160,0 a 80,80 0 1,1 -160,0 z M 330 330 m -80, 0 a 80,80 0 1,1 160,0 a 80,80 0 1,1 -160,0 z " horiz-adv-x="500" unicode="D"/>
<glyph d="M 80 330 m -80, 0 a 80,80 0 1,1 160,0 a 80,80 0 1,1 -160,0 z M 330 580 m -80, 0 a 80,80 0 1,1 160,0 a 80,80 0 1,1 -160,0 z M 330 330 m -80, 0 a 80,80 0 1,1 160,0 a 80,80 0 1,1 -160,0 z " horiz-adv-x="500" unicode="J"/>
<glyph d="M 80 580 m -80, 0 a 80,80 0 1,1 160,0 a 80,80 0 1,1 -160,0 z M 80 330 m -80, 0 a 80,80 0 1,1 160,0 a 80,80 0 1,1 -160,0 z M 330 580 m -80, 0 a 80,80 0 1,1 160,0 a 80,80 0 1,1 -160,0 z M 330 330 m -80, 0 a 80,80 0 1,1 160,0 a 80,80 0 1,1 -160,0 z " horiz-adv-x="500" unicode="G"/>
<glyph d="M 80 80 m -80, 0 a 80,80 0 1,1 160,0 a 80,80 0 1,1 -160,0 z M 330 580 m -80, 0 a 80,80 0 1,1 160,0 a 80,80 0 1,1 -160,0 z M 330 330 m -80, 0 a 80,80 0 1,1 160,0 a 80,80 0 1,1 -160,0 z " horiz-adv-x="500" unicode="&gt;"/>
<glyph d="M 80 580 m -80, 0 a 80,80 0 1,1 160,0 a 80,80 0 1,1 -160,0 z M 80 80 m -80, 0 a 80,80 0 1,1 160,0 a 80,80 0 1,1 -160,0 z M 330 580 m -80, 0 a 80,80 0 1,1 160,0 a 80,80 0 1,1 -160,0 z M 330 330 m -80, 0 a 80,80 0 1,1 160,0 a 80,80 0 1,1 -160,0 z " horiz-adv-x="500" unicode="N"/>
<glyph d="M 80 330 m -80, 0 a 80,80 0 1,1 160,0 a 80,80 0 1,1 -160,0 z M 80 80 m -80, 0 a 80,80 0 1,1 160,0 a 80,80 0 1,1 -160,0 z M 330 580 m -80, 0 a 80,80 0 1,1 160,0 a 80,80 0 1,1 -160,0 z M 330 330 m -80, 0 a 80,80 0 1,1 160,0 a 80,80 0 1,1 -160,0 z " horiz-adv-x="500" unicode="T"/>
<glyph d="M 80 580 m -80, 0 a 80,80 0 1,1 160,0 a 80,80 0 1,1 -160,0 z M 80 330 m -80, 0 a 80,80 0 1,1 160,0 a 80,80 0 1,1 -160,0 z M 80 80 m -80, 0 a 80,80 0 1,1 160,0 a 80,80 0 1,1 -160,0 z M 330 580 m -80, 0 a 80,80 0 1,1 160,0 a 80,80 0 1,1 -160,0 z M 330 330 m -80, 0 a 80,80 0 1,1 160,0 a 80,80 0 1,1 -160,0 z " horiz-adv-x="500" unicode="Q"/>
<glyph d="M 330 80 m -80, 0 a 80,80 0 1,1 160,0 a 80,80 0 1,1 -160,0 z " horiz-adv-x="500" unicode=","/>
<glyph d="M 80 580 m -80, 0 a 80,80 0 1,1 160,0 a 80,80 0 1,1 -160,0 z M 330 80 m -80, 0 a 80,80 0 1,1 160,0 a 80,80 0 1,1 -160,0 z " horiz-adv-x="500" unicode="*"/>
<glyph d="M 80 330 m -80, 0 a 80,80 0 1,1 160,0 a 80,80 0 1,1 -160,0 z M 330 80 m -80, 0 a 80,80 0 1,1 160,0 a 80,80 0 1,1 -160,0 z " horiz-adv-x="500" unicode="5"/>
<glyph d="M 80 580 m -80, 0 a 80,80 0 1,1 160,0 a 80,80 0 1,1 -160,0 z M 80 330 m -80, 0 a 80,80 0 1,1 160,0 a 80,80 0 1,1 -160,0 z M 330 80 m -80, 0 a 80,80 0 1,1 160,0 a 80,80 0 1,1 -160,0 z " horiz-adv-x="500" unicode="&lt;"/>
<glyph d="M 80 80 m -80, 0 a 80,80 0 1,1 160,0 a 80,80 0 1,1 -160,0 z M 330 80 m -80, 0 a 80,80 0 1,1 160,0 a 80,80 0 1,1 -160,0 z " horiz-adv-x="500" unicode="-"/>
<glyph d="M 80 580 m -80, 0 a 80,80 0 1,1 160,0 a 80,80 0 1,1 -160,0 z M 80 80 m -80, 0 a 80,80 0 1,1 160,0 a 80,80 0 1,1 -160,0 z M 330 80 m -80, 0 a 80,80 0 1,1 160,0 a 80,80 0 1,1 -160,0 z " horiz-adv-x="500" unicode="U"/>
<glyph d="M 80 330 m -80, 0 a 80,80 0 1,1 160,0 a 80,80 0 1,1 -160,0 z M 80 80 m -80, 0 a 80,80 0 1,1 160,0 a 80,80 0 1,1 -160,0 z M 330 80 m -80, 0 a 80,80 0 1,1 160,0 a 80,80 0 1,1 -160,0 z " horiz-adv-x="500" unicode="8"/>
<glyph d="M 80 580 m -80, 0 a 80,80 0 1,1 160,0 a 80,80 0 1,1 -160,0 z M 80 330 m -80, 0 a 80,80 0 1,1 160,0 a 80,80 0 1,1 -160,0 z M 80 80 m -80, 0 a 80,80 0 1,1 160,0 a 80,80 0 1,1 -160,0 z M 330 80 m -80, 0 a 80,80 0 1,1 160,0 a 80,80 0 1,1 -160,0 z " horiz-adv-x="500" unicode="V"/>
<glyph d="M 330 580 m -80, 0 a 80,80 0 1,1 160,0 a 80,80 0 1,1 -160,0 z M 330 80 m -80, 0 a 80,80 0 1,1 160,0 a 80,80 0 1,1 -160,0 z " horiz-adv-x="500" unicode="."/>
<glyph d="M 80 580 m -80, 0 a 80,80 0 1,1 160,0 a 80,80 0 1,1 -160,0 z M 330 580 m -80, 0 a 80,80 0 1,1 160,0 a 80,80 0 1,1 -160,0 z M 330 80 m -80, 0 a 80,80 0 1,1 160,0 a 80,80 0 1,1 -160,0 z " horiz-adv-x="500" unicode="%"/>
<glyph d="M 80 330 m -80, 0 a 80,80 0 1,1 160,0 a 80,80 0 1,1 -160,0 z M 330 580 m -80, 0 a 80,80 0 1,1 160,0 a 80,80 0 1,1 -160,0 z M 330 80 m -80, 0 a 80,80 0 1,1 160,0 a 80,80 0 1,1 -160,0 z " horiz-adv-x="500" unicode="["/>
<glyph d="M 80 580 m -80, 0 a 80,80 0 1,1 160,0 a 80,80 0 1,1 -160,0 z M 80 330 m -80, 0 a 80,80 0 1,1 160,0 a 80,80 0 1,1 -160,0 z M 330 580 m -80, 0 a 80,80 0 1,1 160,0 a 80,80 0 1,1 -160,0 z M 330 80 m -80, 0 a 80,80 0 1,1 160,0 a 80,80 0 1,1 -160,0 z " horiz-adv-x="500" unicode="$"/>
<glyph d="M 80 80 m -80, 0 a 80,80 0 1,1 160,0 a 80,80 0 1,1 -160,0 z M 330 580 m -80, 0 a 80,80 0 1,1 160,0 a 80,80 0 1,1 -160,0 z M 330 80 m -80, 0 a 80,80 0 1,1 160,0 a 80,80 0 1,1 -160,0 z " horiz-adv-x="500" unicode="+"/>
<glyph d="M 80 580 m -80, 0 a 80,80 0 1,1 160,0 a 80,80 0 1,1 -160,0 z M 80 80 m -80, 0 a 80,80 0 1,1 160,0 a 80,80 0 1,1 -160,0 z M 330 580 m -80, 0 a 80,80 0 1,1 160,0 a 80,80 0 1,1 -160,0 z M 330 80 m -80, 0 a 80,80 0 1,1 160,0 a 80,80 0 1,1 -160,0 z " horiz-adv-x="500" unicode="X"/>
<glyph d="M 80 330 m -80, 0 a 80,80 0 1,1 160,0 a 80,80 0 1,1 -160,0 z M 80 80 m -80, 0 a 80,80 0 1,1 160,0 a 80,80 0 1,1 -160,0 z M 330 580 m -80, 0 a 80,80 0 1,1 160,0 a 80,80 0 1,1 -160,0 z M 330 80 m -80, 0 a 80,80 0 1,1 160,0 a 80,80 0 1,1 -160,0 z " horiz-adv-x="500" unicode="!"/>
<glyph d="M 80 580 m -80, 0 a 80,80 0 1,1 160,0 a 80,80 0 1,1 -160,0 z M 80 330 m -80, 0 a 80,80 0 1,1 160,0 a 80,80 0 1,1 -160,0 z M 80 80 m -80, 0 a 80,80 0 1,1 160,0 a 80,80 0 1,1 -160,0 z M 330 580 m -80, 0 a 80,80 0 1,1 160,0 a 80,80 0 1,1 -160,0 z M 330 80 m -80, 0 a 80,80 0 1,1 160,0 a 80,80 0 1,1 -160,0 z " horiz-adv-x="500" unicode="&amp;"/>
<glyph d="M 330 330 m -80, 0 a 80,80 0 1,1 160,0 a 80,80 0 1,1 -160,0 z M 330 80 m -80, 0 a 80,80 0 1,1 160,0 a 80,80 0 1,1 -160,0 z " horiz-adv-x="500" unicode=";"/>
<glyph d="M 80 580 m -80, 0 a 80,80 0 1,1 160,0 a 80,80 0 1,1 -160,0 z M 330 330 m -80, 0 a 80,80 0 1,1 160,0 a 80,80 0 1,1 -160,0 z M 330 80 m -80, 0 a 80,80 0 1,1 160,0 a 80,80 0 1,1 -160,0 z " horiz-adv-x="500" unicode=":"/>
<glyph d="M 80 330 m -80, 0 a 80,80 0 1,1 160,0 a 80,80 0 1,1 -160,0 z M 330 330 m -80, 0 a 80,80 0 1,1 160,0 a 80,80 0 1,1 -160,0 z M 330 80 m -80, 0 a 80,80 0 1,1 160,0 a 80,80 0 1,1 -160,0 z " horiz-adv-x="500" unicode="4"/>
<glyph d="M 80 580 m -80, 0 a 80,80 0 1,1 160,0 a 80,80 0 1,1 -160,0 z M 80 330 m -80, 0 a 80,80 0 1,1 160,0 a 80,80 0 1,1 -160,0 z M 330 330 m -80, 0 a 80,80 0 1,1 160,0 a 80,80 0 1,1 -160,0 z M 330 80 m -80, 0 a 80,80 0 1,1 160,0 a 80,80 0 1,1 -160,0 z " horiz-adv-x="500" unicode="\"/>
<glyph d="M 80 80 m -80, 0 a 80,80 0 1,1 160,0 a 80,80 0 1,1 -160,0 z M 330 330 m -80, 0 a 80,80 0 1,1 160,0 a 80,80 0 1,1 -160,0 z M 330 80 m -80, 0 a 80,80 0 1,1 160,0 a 80,80 0 1,1 -160,0 z " horiz-adv-x="500" unicode="0"/>
<glyph d="M 80 580 m -80, 0 a 80,80 0 1,1 160,0 a 80,80 0 1,1 -160,0 z M 80 80 m -80, 0 a 80,80 0 1,1 160,0 a 80,80 0 1,1 -160,0 z M 330 330 m -80, 0 a 80,80 0 1,1 160,0 a 80,80 0 1,1 -160,0 z M 330 80 m -80, 0 a 80,80 0 1,1 160,0 a 80,80 0 1,1 -160,0 z " horiz-adv-x="500" unicode="Z"/>
<glyph d="M 80 330 m -80, 0 a 80,80 0 1,1 160,0 a 80,80 0 1,1 -160,0 z M 80 80 m -80, 0 a 80,80 0 1,1 160,0 a 80,80 0 1,1 -160,0 z M 330 330 m -80, 0 a 80,80 0 1,1 160,0 a 80,80 0 1,1 -160,0 z M 330 80 m -80, 0 a 80,80 0 1,1 160,0 a 80,80 0 1,1 -160,0 z " horiz-adv-x="500" unicode="7"/>
<glyph d="M 80 580 m -80, 0 a 80,80 0 1,1 160,0 a 80,80 0 1,1 -160,0 z M 80 330 m -80, 0 a 80,80 0 1,1 160,0 a 80,80 0 1,1 -160,0 z M 80 80 m -80, 0 a 80,80 0 1,1 160,0 a 80,80 0 1,1 -160,0 z M 330 330 m -80, 0 a 80,80 0 1,1 160,0 a 80,80 0 1,1 -160,0 z M 330 80 m -80, 0 a 80,80 0 1,1 160,0 a 80,80 0 1,1 -160,0 z " horiz-adv-x="500" unicode="("/>
<glyph d="M 330 580 m -80, 0 a 80,80 0 1,1 160,0 a 80,80 0 1,1 -160,0 z M 330 330 m -80, 0 a 80,80 0 1,1 160,0 a 80,80 0 1,1 -160,0 z M 330 80 m -80, 0 a 80,80 0 1,1 160,0 a 80,80 0 1,1 -160,0 z " horiz-adv-x="500" unicode="_"/>
<glyph d="M 80 580 m -80, 0 a 80,80 0 1,1 160,0 a 80,80 0 1,1 -160,0 z M 330 580 m -80, 0 a 80,80 0 1,1 160,0 a 80,80 0 1,1 -160,0 z M 330 330 m -80, 0 a 80,80 0 1,1 160,0 a 80,80 0 1,1 -160,0 z M 330 80 m -80, 0 a 80,80 0 1,1 160,0 a 80,80 0 1,1 -160,0 z " horiz-adv-x="500" unicode="?"/>
<glyph d="M 80 330 m -80, 0 a 80,80 0 1,1 160,0 a 80,80 0 1,1 -160,0 z M 330 580 m -80, 0 a 80,80 0 1,1 160,0 a 80,80 0 1,1 -160,0 z M 330 330 m -80, 0 a 80,80 0 1,1 160,0 a 80,80 0 1,1 -160,0 z M 330 80 m -80, 0 a 80,80 0 1,1 160,0 a 80,80 0 1,1 -160,0 z " horiz-adv-x="500" unicode="W"/>
<glyph d="M 80 580 m -80, 0 a 80,80 0 1,1 160,0 a 80,80 0 1,1 -160,0 z M 80 330 m -80, 0 a 80,80 0 1,1 160,0 a 80,80 0 1,1 -160,0 z M 330 580 m -80, 0 a 80,80 0 1,1 160,0 a 80,80 0 1,1 -160,0 z M 330 330 m -80, 0 a 80,80 0 1,1 160,0 a 80,80 0 1,1 -160,0 z M 330 80 m -80, 0 a 80,80 0 1,1 160,0 a 80,80 0 1,1 -160,0 z " horiz-adv-x="500" unicode="]"/>
<glyph d="M 80 80 m -80, 0 a 80,80 0 1,1 160,0 a 80,80 0 1,1 -160,0 z M 330 580 m -80, 0 a 80,80 0 1,1 160,0 a 80,80 0 1,1 -160,0 z M 330 330 m -80, 0 a 80,80 0 1,1 160,0 a 80,80 0 1,1 -160,0 z M 330 80 m -80, 0 a 80,80 0 1,1 160,0 a 80,80 0 1,1 -160,0 z " horiz-adv-x="500" unicode="#"/>
<glyph d="M 80 580 m -80, 0 a 80,80 0 1,1 160,0 a 80,80 0 1,1 -160,0 z M 80 80 m -80, 0 a 80,80 0 1,1 160,0 a 80,80 0 1,1 -160,0 z M 330 580 m -80, 0 a 80,80 0 1,1 160,0 a 80,80 0 1,1 -160,0 z M 330 330 m -80, 0 a 80,80 0 1,1 160,0 a 80,80 0 1,1 -160,0 z M 330 80 m -80, 0 a 80,80 0 1,1 160,0 a 80,80 0 1,1 -160,0 z " horiz-adv-x="500" unicode="Y"/>
<glyph d="M 80 330 m -80, 0 a 80,80 0 1,1 160,0 a 80,80 0 1,1 -160,0 z M 80 80 m -80, 0 a 80,80 0 1,1 160,0 a 80,80 0 1,1 -160,0 z M 330 580 m -80, 0 a 80,80 0 1,1 160,0 a 80,80 0 1,1 -160,0 z M 330 330 m -80, 0 a 80,80 0 1,1 160,0 a 80,80 0 1,1 -160,0 z M 330 80 m -80, 0 a 80,80 0 1,1 160,0 a 80,80 0 1,1 -160,0 z " horiz-adv-x="500" unicode=")"/>
<glyph d="M 80 580 m -80, 0 a 80,80 0 1,1 160,0 a 80,80 0 1,1 -160,0 z M 80 330 m -80, 0 a 80,80 0 1,1 160,0 a 80,80 0 1,1 -160,0 z M 80 80 m -80, 0 a 80,80 0 1,1 160,0 a 80,80 0 1,1 -160,0 z M 330 580 m -80, 0 a 80,80 0 1,1 160,0 a 80,80 0 1,1 -160,0 z M 330 330 m -80, 0 a 80,80 0 1,1 160,0 a 80,80 0 1,1 -160,0 z M 330 80 m -80, 0 a 80,80 0 1,1 160,0 a 80,80 0 1,1 -160,0 z " horiz-adv-x="500" unicode="="/>
</font>
</defs>
</svg>
